<?xml version="1.0" encoding="utf-8"?>
<!-- Generator: Adobe Illustrator 22.1.0, SVG Export Plug-In . SVG Version: 6.00 Build 0)  -->
<svg version="1.1" id="Layer_2" xmlns="http://www.w3.org/2000/svg" xmlns:xlink="http://www.w3.org/1999/xlink" x="0px" y="0px"
     width="50px" height="50px" viewBox="0 0 50 50" enable-background="new 0 0 50 50" xml:space="preserve">
  <g>
    <path class="msportalfx-svg-c19" fill="#0072c6" d="M 3.167 13 h 22.667 v 4 H 3.167 Z m 5 10 h 25.667 v 4 H 8.167 Z m -5 10 h 22.667 v 4 H 3.167 Z"/>
    <circle class="msportalfx-svg-c13" fill="#b8d432" cx="4" cy="35" r="3.9"/>
    <ellipse class="msportalfx-svg-c13" fill="#b8d432" transform="rotate(-45.001 4 15)" cx="4" cy="15" rx="3.9" ry="3.9"/>
    <ellipse class="msportalfx-svg-c15" fill="#59b4d9" transform="rotate(-45.001 9 25)" cx="9" cy="25" rx="3.9" ry="3.9"/>
    <path class="msportalfx-svg-c19" fill="#0072c6" d="M 24 20 V 10 l 8 5 Z m 0 20 V 30 l 8 5 Z m 8 -10 V 20 l 8 5 Z m 17.2 8.6 h -4.8 c -0.5 0 -0.8 0.3 -0.8 0.8 v 4 H 7 V 50 h 42.2 c 0.5 0 0.8 -0.3 0.8 -0.8 v -9.8 c 0 -0.5 -0.3 -0.8 -0.8 -0.8 Z M 49.281 0 H 7 v 6.7 h 36.381 v 4.2 c 0 0.5 0.3 0.8 1 0.8 h 4.8 c 0.5 0 0.8 -0.3 0.8 -0.8 V 0.9 c 0.1 -0.6 -0.2 -0.9 -0.7 -0.9 Z"/>
  </g>
</svg>
