<?xml version="1.0" encoding="utf-8"?>
<!-- Generator: Adobe Illustrator 22.1.0, SVG Export Plug-In . SVG Version: 6.00 Build 0)  -->
<svg version="1.1" id="Layer_2" xmlns="http://www.w3.org/2000/svg" xmlns:xlink="http://www.w3.org/1999/xlink" x="0px" y="0px"
     width="50px" height="50px" viewBox="0 0 15 15" enable-background="new 0 0 50 50" xml:space="preserve" style="transform:rotateY(-180deg)">
  <style>.icon-canvas-transparent{opacity:0;fill:#2d2d30}.icon-vs-out{fill:#2d2d30}.icon-vs-bg{fill:#c5c5c5}.icon-vs-fg{fill:#2b282e}</style>
  <path class="icon-canvas-transparent" d="M16 16H0V0h16v16z" id="canvas"/>
  <path class="icon-vs-out" d="M16 14H0V2h16v12z" id="outline" style="display: none;"/>
  <path class="icon-vs-bg" d="M1 3v10h14V3H1zm13 9H8V8.507l3.998.006-2.121 2.129.707.707 3.35-3.35-3.35-3.338-.707.706 2.138 2.146L8 7.507V4h6v8z" id="iconBg"/>
  <path class="icon-vs-fg" d="M14 4v8H8V8.507l3.998.006-2.121 2.129.707.707 3.35-3.35-3.35-3.338-.707.706 2.138 2.146L8 7.507V4h6zM6.057 5.367L5.35 4.66 2 8.01l3.35 3.338.707-.707-2.139-2.146L8 8.501v-1l-4.064-.005 2.121-2.129z" id="iconFg" style="display: none;"/>
</svg>
