<?xml version="1.0" encoding="utf-8"?>
<!-- Generator: Adobe Illustrator 22.1.0, SVG Export Plug-In . SVG Version: 6.00 Build 0)  -->
<svg version="1.1" id="Layer_2" xmlns="http://www.w3.org/2000/svg" xmlns:xlink="http://www.w3.org/1999/xlink" x="0px" y="0px"
     width="50px" height="50px" viewBox="0 0 50 50" enable-background="new 0 0 50 50" xml:space="preserve">
<path fill="#7FBA00" d="M18.519,0L1,0C0.448,0,0,0.448,0,1l0,15.638c0,0.234,0.082,0.46,0.232,0.64L4.7,22.64
	C4.89,22.868,5.172,23,5.468,23H22c0.552,0,1-0.448,1-1V5.351c0-0.227-0.077-0.447-0.219-0.625L19.3,0.375
	C19.11,0.138,18.823,0,18.519,0z"/>
  <path opacity="0.15" d="M5,6.056C5,5.473,5.473,5,6.056,5h16.877c-0.037-0.098-0.086-0.191-0.152-0.274L19.3,0.375
	C19.11,0.138,18.823,0,18.519,0H1C0.448,0,0,0.448,0,1v15.638c0,0.234,0.082,0.46,0.232,0.64L4.7,22.64
	c0.083,0.099,0.189,0.171,0.3,0.231V6.056z"/>
  <path opacity="0.25" fill="#FFFFFF" d="M9.5,23H6c-0.552,0-1-0.448-1-1V6c0-0.552,0.448-1,1-1h13.4L9.5,23z"/>
  <rect x="40" y="23" fill="#00188F" width="2" height="14"/>
  <rect x="18" y="13" opacity="0.6" fill="#FFFFFF" width="5" height="2"/>
  <path fill="#68217A" d="M45.519,27H28c-0.552,0-1,0.448-1,1v15.638c0,0.234,0.082,0.46,0.232,0.64L31.7,49.64
	c0.19,0.228,0.471,0.36,0.768,0.36H49c0.552,0,1-0.448,1-1V32.351c0-0.227-0.077-0.447-0.219-0.625L46.3,27.375
	C46.11,27.138,45.823,27,45.519,27z"/>
  <path fill="#804998" d="M49,32H33c-0.552,0-1,0.448-1,1v16c0,0.552,0.448,1,1,1h16c0.552,0,1-0.448,1-1V33
	C50,32.448,49.552,32,49,32z"/>
  <path opacity="0.25" fill="#FFFFFF" d="M36.5,50H33c-0.552,0-1-0.448-1-1V33c0-0.552,0.448-1,1-1h13.4L36.5,50z"/>
  <path opacity="0.4" fill="#FFFFFF" d="M32,32.375c-0.096,0-0.192-0.036-0.266-0.109l-4.5-4.5c-0.146-0.146-0.146-0.385,0-0.531
	c0.146-0.146,0.385-0.146,0.531,0l4.5,4.5c0.146,0.146,0.146,0.385,0,0.531C32.192,32.339,32.096,32.375,32,32.375z"/>
  <path fill="#DD5900" d="M45.519,0L28,0c-0.552,0-1,0.448-1,1v15.638c0,0.234,0.082,0.46,0.232,0.64L31.7,22.64
	c0.19,0.228,0.471,0.36,0.768,0.36H49c0.552,0,1-0.448,1-1V5.351c0-0.227-0.077-0.447-0.219-0.625L46.3,0.375
	C46.11,0.138,45.823,0,45.519,0z"/>
  <path opacity="0.2" fill="#FFFFFF" d="M49,5H33c-0.552,0-1,0.448-1,1v16c0,0.552,0.448,1,1,1h16c0.552,0,1-0.448,1-1V6
	C50,5.448,49.552,5,49,5z"/>
  <path opacity="0.25" fill="#FFFFFF" d="M36.5,23H33c-0.552,0-1-0.448-1-1V6c0-0.552,0.448-1,1-1h13.4L36.5,23z"/>
  <path opacity="0.4" fill="#FFFFFF" d="M32,5.375c-0.096,0-0.192-0.037-0.266-0.11l-4.5-4.5c-0.146-0.146-0.146-0.384,0-0.53
	c0.146-0.146,0.385-0.146,0.531,0l4.5,4.5c0.146,0.146,0.146,0.384,0,0.53C32.192,5.338,32.096,5.375,32,5.375z"/>
  <rect x="40" y="18" opacity="0.6" fill="#FFFFFF" width="2" height="5"/>
  <g>
	<circle fill="#00188F" cx="41" cy="14" r="3.9"/>
    <g opacity="0.8">
		<path fill="#FFFFFF" d="M41,10.1c2.15,0,3.9,1.75,3.9,3.9s-1.75,3.9-3.9,3.9s-3.9-1.75-3.9-3.9S38.85,10.1,41,10.1 M41,9.1
			c-2.702,0-4.9,2.198-4.9,4.9s2.198,4.9,4.9,4.9s4.9-2.198,4.9-4.9S43.702,9.1,41,9.1L41,9.1z"/>
	</g>
</g>
  <g>
	<circle fill="#00188F" cx="41" cy="41" r="3.9"/>
    <g opacity="0.8">
		<path fill="#FFFFFF" d="M41,37.1c2.15,0,3.9,1.75,3.9,3.9s-1.75,3.9-3.9,3.9s-3.9-1.75-3.9-3.9S38.85,37.1,41,37.1 M41,36.1
			c-2.702,0-4.9,2.198-4.9,4.9s2.198,4.9,4.9,4.9s4.9-2.198,4.9-4.9S43.702,36.1,41,36.1L41,36.1z"/>
	</g>
</g>
  <path fill="#0072C6" d="M18.519,27H1c-0.552,0-1,0.448-1,1l0,15.638c0,0.234,0.082,0.46,0.232,0.64L4.7,49.64
	C4.89,49.868,5.172,50,5.468,50H22c0.552,0,1-0.448,1-1V32.351c0-0.227-0.077-0.447-0.219-0.625L19.3,27.375
	C19.11,27.138,18.823,27,18.519,27z"/>
  <path fill="#3999C6" d="M22,32H6c-0.552,0-1,0.448-1,1v16c0,0.552,0.448,1,1,1h16c0.552,0,1-0.448,1-1V33C23,32.448,22.552,32,22,32
	z"/>
  <path opacity="0.25" fill="#FFFFFF" d="M9.5,50H6c-0.552,0-1-0.448-1-1V33c0-0.552,0.448-1,1-1h13.4L9.5,50z"/>
  <g>
	<circle fill="#00188F" cx="14" cy="41" r="3.9"/>
    <g opacity="0.8">
		<path fill="#FFFFFF" d="M14,37.1c2.15,0,3.9,1.75,3.9,3.9s-1.75,3.9-3.9,3.9s-3.9-1.75-3.9-3.9S11.85,37.1,14,37.1 M14,36.1
			c-2.702,0-4.9,2.198-4.9,4.9s2.198,4.9,4.9,4.9s4.9-2.198,4.9-4.9S16.702,36.1,14,36.1L14,36.1z"/>
	</g>
</g>
  <g>
	<circle fill="#00188F" cx="14" cy="14" r="3.9"/>
    <g opacity="0.8">
		<path fill="#FFFFFF" d="M14,10.1c2.15,0,3.9,1.75,3.9,3.9s-1.75,3.9-3.9,3.9s-3.9-1.75-3.9-3.9S11.85,10.1,14,10.1 M14,9.1
			c-2.702,0-4.9,2.198-4.9,4.9s2.198,4.9,4.9,4.9s4.9-2.198,4.9-4.9S16.702,9.1,14,9.1L14,9.1z"/>
	</g>
</g>
  <path opacity="0.4" fill="#FFFFFF" d="M5,5.375c-0.096,0-0.192-0.037-0.265-0.11l-4.5-4.5c-0.146-0.146-0.146-0.384,0-0.53
	s0.384-0.146,0.53,0l4.5,4.5c0.146,0.146,0.146,0.384,0,0.53C5.192,5.338,5.096,5.375,5,5.375z"/>
  <path opacity="0.4" fill="#FFFFFF" d="M31,14c0,1.103-0.897,2-2,2h-2v-4h2C30.103,12,31,12.897,31,14z"/>
  <path fill="#00188F" d="M29,13h-6v2h6c0.552,0,1-0.448,1-1C30,13.448,29.552,13,29,13z"/>
  <path opacity="0.4" fill="#FFFFFF" d="M41,31c-1.103,0-2-0.897-2-2v-2h4v2C43,30.103,42.103,31,41,31z"/>
  <path fill="#00188F" d="M40,23v6c0,0.552,0.448,1,1,1s1-0.448,1-1v-6H40z"/>
  <path opacity="0.4" fill="#FFFFFF" d="M14,31c-1.103,0-2-0.897-2-2v-2h4v2C16,30.103,15.103,31,14,31z"/>
  <path fill="#00188F" d="M13,23v6c0,0.552,0.448,1,1,1s1-0.448,1-1v-6H13z"/>
  <path opacity="0.4" fill="#FFFFFF" d="M31,41c0,1.103-0.897,2-2,2h-2v-4h2C30.103,39,31,39.897,31,41z"/>
  <path fill="#00188F" d="M23,42h6c0.552,0,1-0.448,1-1s-0.448-1-1-1h-6V42z"/>
  <path opacity="0.5" fill="#0072C6" d="M29,13h-6v2h6c0.552,0,1-0.448,1-1C30,13.448,29.552,13,29,13z"/>
  <path opacity="0.5" fill="#0072C6" d="M40,23v6c0,0.552,0.448,1,1,1s1-0.448,1-1v-6H40z"/>
  <path opacity="0.5" fill="#0072C6" d="M13,23v6c0,0.552,0.448,1,1,1s1-0.448,1-1v-6H13z"/>
  <path opacity="0.5" fill="#0072C6" d="M23,42h6c0.552,0,1-0.448,1-1s-0.448-1-1-1h-6V42z"/>
  <rect x="32" y="40" opacity="0.6" fill="#FFFFFF" width="5" height="2"/>
  <rect x="13" y="32" opacity="0.6" fill="#FFFFFF" width="2" height="5"/>
  <path opacity="0.4" fill="#FFFFFF" d="M5,32.375c-0.096,0-0.192-0.036-0.265-0.109l-4.5-4.5c-0.146-0.146-0.146-0.385,0-0.531
	s0.384-0.146,0.53,0l4.5,4.5c0.146,0.146,0.146,0.385,0,0.531C5.192,32.339,5.096,32.375,5,32.375z"/>
</svg>
