<svg xmlns="http://www.w3.org/2000/svg" xmlns:xlink="http://www.w3.org/1999/xlink" viewBox="0 0 18 18"><defs><style>.cls-1{fill:#773adc;}.cls-2{fill:url(#linear-gradient);}.cls-3{fill:#b796f9;}.cls-4{fill:#a67af4;}</style><linearGradient id="linear-gradient" x1="14.72" y1="12.02" x2="12.01" y2="10.45" gradientUnits="userSpaceOnUse"><stop offset="0.22" stop-color="#b796f9"/><stop offset="1" stop-color="#552f99"/></linearGradient></defs><title>ABS-member-02</title><g id="Layer_1" data-name="Layer 1"><polygon class="cls-1" points="16.61 4.59 16.61 13.43 9.01 17.87 9.01 9.02 16.61 4.59"/><path class="cls-2" d="M13.36,9c1.06-.61,1.92-.12,1.92,1.1a4.18,4.18,0,0,1-1.91,3.3c-1,.62-1.91.13-1.92-1.09A4.21,4.21,0,0,1,13.36,9Z"/><polygon class="cls-3" points="16.61 4.59 9.01 9.03 1.42 4.59 9.01 0.15 16.61 4.59"/><polygon class="cls-4" points="9.01 9.03 9.01 17.87 1.42 13.43 1.42 4.59 9.01 9.03"/></g></svg>