<svg width="40" height="32" viewBox="0 0 40 32" fill="none" xmlns="http://www.w3.org/2000/svg">
  <path d="M24 20H16C14.875 20 14 20.9375 14 22V30C14 31.125 14.875 32 16 32H24C25.0625 32 26 31.125 26 30V22C26 20.9375 25.0625 20 24 20ZM12 2C12 0.9375 11.0625 0 10 0H2C0.875 0 0 0.9375 0 2V10C0 11.125 0.875 12 2 12H7.9375L12.5 20.0625C13.1875 18.8125 14.5 18 16 18L12 11V8H26V4H12V2ZM38 0H30C28.875 0 28 0.9375 28 2V10C28 11.125 28.875 12 30 12H38C39.0625 12 40 11.125 40 10V2C40 0.9375 39.0625 0 38 0Z" fill="black"/>
</svg>
