<?xml version="1.0" encoding="utf-8"?>
<!-- Generator: Adobe Illustrator 22.1.0, SVG Export Plug-In . SVG Version: 6.00 Build 0)  -->
<svg version="1.1" id="Layer_1" xmlns="http://www.w3.org/2000/svg" xmlns:xlink="http://www.w3.org/1999/xlink" x="0px" y="0px"
     width="50px" height="50px" viewBox="0 0 50 50" enable-background="new 0 0 50 50" xml:space="preserve">
<path fill="#0072C6" d="M38.428,3H4.913C3.856,3,3,3.856,3,4.913v29.916c0,0.448,0.157,0.881,0.443,1.225l8.548,10.258
	C12.355,46.748,12.893,47,13.461,47h31.626C46.144,47,47,46.144,47,45.087V13.236c0-0.434-0.148-0.856-0.419-1.195l-6.659-8.323
	C39.559,3.264,39.01,3,38.428,3z"/>
  <path fill="#3999C6" d="M45.111,13H14.889C13.846,13,13,13.846,13,14.889v30.222C13,46.154,13.846,47,14.889,47h30.222
	C46.154,47,47,46.154,47,45.111V14.889C47,13.846,46.154,13,45.111,13z"/>
  <path opacity="0.25" fill="#FFFFFF" d="M21.5,47h-6.611C13.846,47,13,46.154,13,45.111V14.889C13,13.846,13.846,13,14.889,13H40.2
	L21.5,47z"/>
  <g>
	<circle fill="#00188F" cx="29.783" cy="29.783" r="6.9"/>
    <g opacity="0.8">
		<path fill="#FFFFFF" d="M29.783,22.883c3.804,0,6.9,3.096,6.9,6.9s-3.096,6.9-6.9,6.9s-6.9-3.096-6.9-6.9
			S25.978,22.883,29.783,22.883 M29.783,21.383c-4.632,0-8.4,3.768-8.4,8.4s3.768,8.4,8.4,8.4s8.4-3.768,8.4-8.4
			S34.414,21.383,29.783,21.383L29.783,21.383z"/>
	</g>
</g>
  <line opacity="0.4" fill="none" stroke="#FFFFFF" stroke-width="1.5" stroke-linecap="round" stroke-miterlimit="10" x1="4.5" y1="4.5" x2="13" y2="13"/>
</svg>
